{
	"patcher" : 	{
		"fileversion" : 1,
		"appversion" : 		{
			"major" : 8,
			"minor" : 6,
			"revision" : 0,
			"architecture" : "x64",
			"modernui" : 1
		}
,
		"classnamespace" : "box",
		"rect" : [ 34.0, 77.0, 1852.0, 921.0 ],
		"bglocked" : 0,
		"openinpresentation" : 1,
		"default_fontsize" : 14.0,
		"default_fontface" : 0,
		"default_fontname" : "Ableton Sans Bold",
		"gridonopen" : 1,
		"gridsize" : [ 5.0, 5.0 ],
		"gridsnaponopen" : 1,
		"objectsnaponopen" : 1,
		"statusbarvisible" : 2,
		"toolbarvisible" : 1,
		"lefttoolbarpinned" : 0,
		"toptoolbarpinned" : 0,
		"righttoolbarpinned" : 0,
		"bottomtoolbarpinned" : 0,
		"toolbars_unpinned_last_save" : 0,
		"tallnewobj" : 0,
		"boxanimatetime" : 200,
		"enablehscroll" : 1,
		"enablevscroll" : 1,
		"devicewidth" : 0.0,
		"description" : "",
		"digest" : "",
		"tags" : "",
		"style" : "",
		"subpatcher_template" : "",
		"assistshowspatchername" : 0,
		"integercoordinates" : 1,
		"boxes" : [ 			{
				"box" : 				{
					"comment" : "",
					"id" : "obj-15",
					"index" : 0,
					"maxclass" : "inlet",
					"numinlets" : 0,
					"numoutlets" : 1,
					"outlettype" : [ "" ],
					"patching_rect" : [ 564.0, 52.0, 30.0, 30.0 ]
				}

			}
, 			{
				"box" : 				{
					"id" : "obj-32",
					"maxclass" : "newobj",
					"numinlets" : 1,
					"numoutlets" : 1,
					"outlettype" : [ "" ],
					"patching_rect" : [ 715.0, 227.0, 82.0, 24.0 ],
					"text" : "prepend set"
				}

			}
, 			{
				"box" : 				{
					"id" : "obj-8",
					"maxclass" : "newobj",
					"numinlets" : 1,
					"numoutlets" : 10,
					"outlettype" : [ "int", "int", "int", "int", "int", "int", "int", "int", "int", "int" ],
					"patching_rect" : [ 564.0, 149.0, 170.0, 24.0 ],
					"text" : "unpack 0 0 0 0 0 0 0 0 0 0"
				}

			}
, 			{
				"box" : 				{
					"id" : "obj-63",
					"maxclass" : "newobj",
					"numinlets" : 2,
					"numoutlets" : 2,
					"outlettype" : [ "", "" ],
					"patching_rect" : [ 287.75, 154.0, 78.0, 24.0 ],
					"text" : "zl.group 24"
				}

			}
, 			{
				"box" : 				{
					"id" : "obj-65",
					"maxclass" : "newobj",
					"numinlets" : 1,
					"numoutlets" : 1,
					"outlettype" : [ "" ],
					"patching_rect" : [ 287.75, 120.0, 82.0, 24.0 ],
					"text" : "prepend set"
				}

			}
, 			{
				"box" : 				{
					"id" : "obj-66",
					"maxclass" : "newobj",
					"numinlets" : 2,
					"numoutlets" : 2,
					"outlettype" : [ "", "" ],
					"patching_rect" : [ 287.75, 89.0, 54.0, 24.0 ],
					"text" : "zl.iter 1"
				}

			}
, 			{
				"box" : 				{
					"id" : "obj-38",
					"maxclass" : "message",
					"numinlets" : 2,
					"numoutlets" : 1,
					"outlettype" : [ "" ],
					"patching_rect" : [ 1305.0, 655.0, 55.0, 24.0 ],
					"text" : "0. 1 0 1"
				}

			}
, 			{
				"box" : 				{
					"id" : "obj-37",
					"maxclass" : "message",
					"numinlets" : 2,
					"numoutlets" : 1,
					"outlettype" : [ "" ],
					"patching_rect" : [ 1212.0, 655.0, 67.0, 24.0 ],
					"text" : "0. 0.4 0 1"
				}

			}
, 			{
				"box" : 				{
					"id" : "obj-34",
					"maxclass" : "message",
					"numinlets" : 2,
					"numoutlets" : 1,
					"outlettype" : [ "" ],
					"patching_rect" : [ 1123.0, 596.0, 194.0, 24.0 ],
					"text" : "0. 0.375 0.041016 1."
				}

			}
, 			{
				"box" : 				{
					"id" : "obj-22",
					"maxclass" : "message",
					"numinlets" : 2,
					"numoutlets" : 1,
					"outlettype" : [ "" ],
					"patching_rect" : [ 1027.0, 643.0, 145.0, 24.0 ],
					"text" : "bgfillcolor $1 $2 $3 $4"
				}

			}
, 			{
				"box" : 				{
					"angle" : 270.0,
					"bgcolor" : [ 0.0, 1, 0, 1 ],
					"id" : "obj-14",
					"maxclass" : "panel",
					"mode" : 0,
					"numinlets" : 1,
					"numoutlets" : 0,
					"patching_rect" : [ 1031.0, 718.0, 128.0, 128.0 ],
					"proportion" : 0.39
				}

			}
, 			{
				"box" : 				{
					"id" : "obj-13",
					"maxclass" : "swatch",
					"numinlets" : 3,
					"numoutlets" : 2,
					"outlettype" : [ "", "float" ],
					"parameter_enable" : 0,
					"patching_rect" : [ 1069.0, 496.0, 128.0, 32.0 ],
					"saturation" : 1.0
				}

			}
, 			{
				"box" : 				{
					"id" : "obj-60",
					"maxclass" : "newobj",
					"numinlets" : 0,
					"numoutlets" : 1,
					"outlettype" : [ "" ],
					"patching_rect" : [ 818.0, 540.0, 103.0, 24.0 ],
					"text" : "r ---paramlocks"
				}

			}
, 			{
				"box" : 				{
					"id" : "obj-28",
					"maxclass" : "newobj",
					"numinlets" : 1,
					"numoutlets" : 1,
					"outlettype" : [ "" ],
					"patching_rect" : [ 818.0, 637.0, 89.0, 24.0 ],
					"text" : "prepend lock"
				}

			}
, 			{
				"box" : 				{
					"activebgcolor" : [ 0.117647058823529, 0.117647058823529, 0.117647058823529, 0.0 ],
					"activebgoncolor" : [ 1.0, 0.67843137254902, 0.337254901960784, 0.0 ],
					"activetextcolor" : [ 0.282352941176471, 0.282352941176471, 0.282352941176471, 1.0 ],
					"activetextoncolor" : [ 1.0, 0.67843137254902, 0.337254901960784, 1.0 ],
					"annotation" : "Locking prevents randomisation.",
					"bordercolor" : [ 0.066666666666667, 0.066666666666667, 0.066666666666667, 0.0 ],
					"focusbordercolor" : [ 0.568627450980392, 0.568627450980392, 0.568627450980392, 0.0 ],
					"hint" : "Lock parameter",
					"id" : "obj-10",
					"maxclass" : "live.text",
					"numinlets" : 1,
					"numoutlets" : 2,
					"outlettype" : [ "", "" ],
					"parameter_enable" : 1,
					"patching_rect" : [ 818.0, 592.0, 31.092437326908112, 31.092437326908112 ],
					"pictures" : [ "unlocked.svg", "locked.svg" ],
					"presentation" : 1,
					"presentation_rect" : [ 301.0, 11.0, 18.5, 20.0 ],
					"remapsvgcolors" : 1,
					"saved_attribute_attributes" : 					{
						"activebgcolor" : 						{
							"expression" : ""
						}
,
						"activebgoncolor" : 						{
							"expression" : ""
						}
,
						"activetextcolor" : 						{
							"expression" : ""
						}
,
						"activetextoncolor" : 						{
							"expression" : "themecolor.live_lcd_control_fg"
						}
,
						"bordercolor" : 						{
							"expression" : ""
						}
,
						"focusbordercolor" : 						{
							"expression" : ""
						}
,
						"textcolor" : 						{
							"expression" : "themecolor.live_lcd_control_fg"
						}
,
						"valueof" : 						{
							"parameter_enum" : [ "val1", "val2" ],
							"parameter_info" : "Locking prevents randomisation.",
							"parameter_longname" : "live.text[3]",
							"parameter_mmax" : 1,
							"parameter_shortname" : "live.text",
							"parameter_type" : 2
						}

					}
,
					"textcolor" : [ 1.0, 0.67843137254902, 0.337254901960784, 1.0 ],
					"usepicture" : 1,
					"varname" : "live.text[4]"
				}

			}
, 			{
				"box" : 				{
					"args" : [ 0.266666666666667, 0.180392156862745, 0.611764705882353, 1.0 ],
					"bgmode" : 0,
					"border" : 0,
					"clickthrough" : 0,
					"enablehscroll" : 0,
					"enablevscroll" : 0,
					"id" : "obj-46",
					"lockeddragscroll" : 0,
					"lockedsize" : 0,
					"maxclass" : "bpatcher",
					"name" : "nob_bar.maxpat",
					"numinlets" : 2,
					"numoutlets" : 1,
					"offset" : [ 0.0, 0.0 ],
					"outlettype" : [ "float" ],
					"patching_rect" : [ 280.0, 380.5, 58.0, 64.0 ],
					"presentation" : 1,
					"presentation_rect" : [ 259.0, -1.5, 40.0, 40.0 ],
					"viewvisibility" : 1
				}

			}
, 			{
				"box" : 				{
					"args" : [ 0.513725490196078, 0.258823529411765, 0.0, 1.0 ],
					"bgmode" : 0,
					"border" : 0,
					"clickthrough" : 0,
					"enablehscroll" : 0,
					"enablevscroll" : 0,
					"id" : "obj-45",
					"lockeddragscroll" : 0,
					"lockedsize" : 0,
					"maxclass" : "bpatcher",
					"name" : "nob_bar.maxpat",
					"numinlets" : 2,
					"numoutlets" : 1,
					"offset" : [ 0.0, 0.0 ],
					"outlettype" : [ "float" ],
					"patching_rect" : [ 212.0, 380.5, 58.0, 64.0 ],
					"presentation" : 1,
					"presentation_rect" : [ 217.0, -1.5, 40.0, 40.0 ],
					"viewvisibility" : 1
				}

			}
, 			{
				"box" : 				{
					"args" : [ 0.0, 0.301960784313725, 0.513725490196078, 1.0 ],
					"bgmode" : 0,
					"border" : 0,
					"clickthrough" : 0,
					"enablehscroll" : 0,
					"enablevscroll" : 0,
					"id" : "obj-44",
					"lockeddragscroll" : 0,
					"lockedsize" : 0,
					"maxclass" : "bpatcher",
					"name" : "nob_bar.maxpat",
					"numinlets" : 2,
					"numoutlets" : 1,
					"offset" : [ 0.0, 0.0 ],
					"outlettype" : [ "float" ],
					"patching_rect" : [ 147.0, 380.5, 58.0, 64.0 ],
					"presentation" : 1,
					"presentation_rect" : [ 175.0, -1.5, 40.0, 40.0 ],
					"viewvisibility" : 1
				}

			}
, 			{
				"box" : 				{
					"args" : [ 0.105882352941176, 0.470588235294118, 0.309803921568627, 1.0 ],
					"bgmode" : 0,
					"border" : 0,
					"clickthrough" : 0,
					"enablehscroll" : 0,
					"enablevscroll" : 0,
					"id" : "obj-43",
					"lockeddragscroll" : 0,
					"lockedsize" : 0,
					"maxclass" : "bpatcher",
					"name" : "nob_bar.maxpat",
					"numinlets" : 2,
					"numoutlets" : 1,
					"offset" : [ 0.0, 0.0 ],
					"outlettype" : [ "float" ],
					"patching_rect" : [ 84.0, 380.5, 58.0, 64.0 ],
					"presentation" : 1,
					"presentation_rect" : [ 133.0, -1.5, 40.0, 40.0 ],
					"viewvisibility" : 1
				}

			}
, 			{
				"box" : 				{
					"args" : [ 0.0, 0.45098, 0.513725, 1.0 ],
					"bgmode" : 0,
					"border" : 0,
					"clickthrough" : 0,
					"enablehscroll" : 0,
					"enablevscroll" : 0,
					"id" : "obj-42",
					"lockeddragscroll" : 0,
					"lockedsize" : 0,
					"maxclass" : "bpatcher",
					"name" : "nob_bar.maxpat",
					"numinlets" : 2,
					"numoutlets" : 1,
					"offset" : [ 0.0, 0.0 ],
					"outlettype" : [ "float" ],
					"patching_rect" : [ 19.0, 380.5, 40.0, 40.0 ],
					"presentation" : 1,
					"presentation_rect" : [ 91.0, -1.5, 40.0, 40.0 ],
					"viewvisibility" : 1
				}

			}
, 			{
				"box" : 				{
					"id" : "obj-2",
					"maxclass" : "message",
					"numinlets" : 2,
					"numoutlets" : 1,
					"outlettype" : [ "" ],
					"patching_rect" : [ 818.0, 230.0, 70.0, 24.0 ],
					"text" : "texton  #1"
				}

			}
, 			{
				"box" : 				{
					"id" : "obj-21",
					"maxclass" : "newobj",
					"numinlets" : 1,
					"numoutlets" : 1,
					"outlettype" : [ "bang" ],
					"patching_rect" : [ 864.0, 183.0, 74.0, 24.0 ],
					"text" : "loadbang"
				}

			}
, 			{
				"box" : 				{
					"id" : "obj-20",
					"maxclass" : "message",
					"numinlets" : 2,
					"numoutlets" : 1,
					"outlettype" : [ "" ],
					"patching_rect" : [ 904.0, 230.0, 54.0, 24.0 ],
					"text" : "text  #1"
				}

			}
, 			{
				"box" : 				{
					"fontsize" : 30.0,
					"id" : "obj-1",
					"maxclass" : "live.text",
					"numinlets" : 1,
					"numoutlets" : 2,
					"outlettype" : [ "", "" ],
					"parameter_enable" : 1,
					"patching_rect" : [ 840.5, 405.0, 44.0, 15.0 ],
					"presentation" : 1,
					"presentation_rect" : [ 1.0, 0.0, 57.0, 38.5 ],
					"saved_attribute_attributes" : 					{
						"valueof" : 						{
							"parameter_enum" : [ "val1", "val2" ],
							"parameter_longname" : "live.text[1]",
							"parameter_mmax" : 1,
							"parameter_shortname" : "live.text[1]",
							"parameter_type" : 2
						}

					}
,
					"text" : "#1",
					"texton" : "#1",
					"varname" : "live.text[1]"
				}

			}
, 			{
				"box" : 				{
					"id" : "obj-9",
					"linecount" : 11,
					"maxclass" : "comment",
					"numinlets" : 1,
					"numoutlets" : 0,
					"patching_rect" : [ 988.0, 108.0, 150.0, 179.0 ],
					"text" : "\tSTEPS \t\t: 0,\n\tBEATS \t\t: 1,\n\tOFFSET \t\t: 2,\n\tACCENTS\t\t: 3,\n\tACC_OFFSET\t: 4,\n\tPITCH\t\t: 5,\n\tLENGTH\t\t: 6,\n\tVELOCITY\t: 7,\n\tACC_VELOCITY: 8,\n\tREVERSE\t\t: 9,\n\tLOCK\t\t:10"
				}

			}
, 			{
				"box" : 				{
					"annotation" : "Locking prevents randomisation.",
					"hint" : "Lock Channel",
					"id" : "obj-5",
					"maxclass" : "live.text",
					"numinlets" : 1,
					"numoutlets" : 2,
					"outlettype" : [ "", "" ],
					"parameter_enable" : 1,
					"patching_rect" : [ 778.0, 421.0, 44.0, 15.0 ],
					"pictures" : [ "unlocked.svg", "locked.svg" ],
					"presentation" : 1,
					"presentation_rect" : [ 59.0, 0.0, 30.0, 38.5 ],
					"saved_attribute_attributes" : 					{
						"valueof" : 						{
							"parameter_enum" : [ "val1", "val2" ],
							"parameter_info" : "Locking prevents randomisation.",
							"parameter_longname" : "live.text",
							"parameter_mmax" : 1,
							"parameter_shortname" : "live.text",
							"parameter_type" : 2
						}

					}
,
					"usepicture" : 1,
					"varname" : "live.text"
				}

			}
, 			{
				"box" : 				{
					"id" : "obj-19",
					"maxclass" : "newobj",
					"numinlets" : 0,
					"numoutlets" : 1,
					"outlettype" : [ "" ],
					"patching_rect" : [ 34.0, 161.0, 171.0, 24.0 ],
					"text" : "r ---update_note_names"
				}

			}
, 			{
				"box" : 				{
					"comment" : "",
					"id" : "obj-7",
					"index" : 0,
					"maxclass" : "outlet",
					"numinlets" : 1,
					"numoutlets" : 0,
					"patching_rect" : [ 275.0, 836.0, 30.0, 30.0 ]
				}

			}
, 			{
				"box" : 				{
					"comment" : "",
					"id" : "obj-3",
					"index" : 0,
					"maxclass" : "inlet",
					"numinlets" : 0,
					"numoutlets" : 1,
					"outlettype" : [ "" ],
					"patching_rect" : [ 287.75, 31.0, 30.0, 30.0 ]
				}

			}
, 			{
				"box" : 				{
					"bordercolor" : [ 0.066666666666667, 0.066666666666667, 0.066666666666667, 0.0 ],
					"fontname" : "Ableton Sans Light",
					"fontsize" : 13.0,
					"hint" : "REVERSE",
					"id" : "obj-12",
					"maxclass" : "live.text",
					"numinlets" : 1,
					"numoutlets" : 2,
					"outlettype" : [ "", "" ],
					"parameter_enable" : 1,
					"patching_rect" : [ 723.0, 418.5, 44.0, 14.0 ],
					"pictures" : [ "reverse.svg", "reverse.svg" ],
					"presentation" : 1,
					"presentation_rect" : [ 301.0, 1.0, 70.0, 40.0 ],
					"remapsvgcolors" : 1,
					"saved_attribute_attributes" : 					{
						"bordercolor" : 						{
							"expression" : ""
						}
,
						"valueof" : 						{
							"parameter_enum" : [ "val1", "val2" ],
							"parameter_longname" : "live.text[5]",
							"parameter_mmax" : 1,
							"parameter_shortname" : "live.text[2]",
							"parameter_type" : 2
						}

					}
,
					"text" : "Reverse",
					"texton" : "Reverse",
					"usepicture" : 1,
					"usesvgviewbox" : 1,
					"varname" : "live.text[2]"
				}

			}
, 			{
				"box" : 				{
					"id" : "obj-4",
					"maxclass" : "newobj",
					"numinlets" : 12,
					"numoutlets" : 1,
					"outlettype" : [ "list" ],
					"patching_rect" : [ 275.0, 779.0, 134.5, 24.0 ],
					"text" : "funnel 12"
				}

			}
, 			{
				"box" : 				{
					"id" : "obj-35",
					"maxclass" : "newobj",
					"numinlets" : 1,
					"numoutlets" : 13,
					"outlettype" : [ "", "", "", "", "", "", "", "", "", "", "", "", "" ],
					"patching_rect" : [ 287.75, 197.0, 145.0, 24.0 ],
					"text" : "unjoin 12 @outsize 2"
				}

			}
, 			{
				"box" : 				{
					"appearance" : 2,
					"bordercolor" : [ 0.066666666666667, 0.066666666666667, 0.066666666666667, 0.0 ],
					"fontname" : "Ableton Sans Light",
					"fontsize" : 30.0,
					"hint" : "ACCENT VELOCITY",
					"id" : "obj-85",
					"maxclass" : "live.numbox",
					"numinlets" : 1,
					"numoutlets" : 2,
					"outlettype" : [ "", "float" ],
					"parameter_enable" : 1,
					"patching_rect" : [ 663.0, 418.0, 52.0, 37.0 ],
					"presentation" : 1,
					"presentation_rect" : [ 536.0, 0.5, 57.0, 37.0 ],
					"saved_attribute_attributes" : 					{
						"bordercolor" : 						{
							"expression" : ""
						}
,
						"valueof" : 						{
							"parameter_longname" : "live.numbox[16]",
							"parameter_shortname" : "live.numbox",
							"parameter_steps" : 20,
							"parameter_type" : 0,
							"parameter_unitstyle" : 0
						}

					}
,
					"varname" : "live.numbox[1]"
				}

			}
, 			{
				"box" : 				{
					"appearance" : 2,
					"bordercolor" : [ 0.066666666666667, 0.066666666666667, 0.066666666666667, 0.0 ],
					"fontname" : "Ableton Sans Light",
					"fontsize" : 30.0,
					"hint" : "VELOCITY",
					"id" : "obj-81",
					"maxclass" : "live.numbox",
					"numinlets" : 1,
					"numoutlets" : 2,
					"outlettype" : [ "", "float" ],
					"parameter_enable" : 1,
					"patching_rect" : [ 597.0, 418.0, 60.0, 37.0 ],
					"presentation" : 1,
					"presentation_rect" : [ 477.0, 0.5, 57.0, 37.0 ],
					"saved_attribute_attributes" : 					{
						"bordercolor" : 						{
							"expression" : ""
						}
,
						"valueof" : 						{
							"parameter_longname" : "live.numbox[17]",
							"parameter_shortname" : "live.numbox",
							"parameter_steps" : 20,
							"parameter_type" : 0,
							"parameter_unitstyle" : 0
						}

					}
,
					"varname" : "live.numbox"
				}

			}
, 			{
				"box" : 				{
					"appearance" : 1,
					"bordercolor" : [ 0.066666666666667, 0.066666666666667, 0.066666666666667, 0.0 ],
					"fontname" : "Ableton Sans Light",
					"fontsize" : 20.0,
					"hint" : "NOTE",
					"id" : "obj-64",
					"maxclass" : "live.menu",
					"numinlets" : 1,
					"numoutlets" : 3,
					"outlettype" : [ "", "", "float" ],
					"parameter_enable" : 1,
					"patching_rect" : [ 370.0, 394.0, 61.152881622314453, 26.0 ],
					"presentation" : 1,
					"presentation_rect" : [ 595.0, 6.0, 325.0, 26.0 ],
					"saved_attribute_attributes" : 					{
						"bordercolor" : 						{
							"expression" : ""
						}
,
						"valueof" : 						{
							"parameter_enum" : [ "0:C-2", "1:C♯-2", "2:D-2", "3:D♯-2", "4:E-2", "5:F-2", "6:F♯-2", "7:G-2", "8:G♯-2", "9:A-2", "10:A♯-2", "11:B-2", "12:C-1", "13:C♯-1", "14:D-1", "15:D♯-1", "16:E-1", "17:F-1", "18:F♯-1", "19:G-1", "20:G♯-1", "21:A-1", "22:A♯-1", "23:B-1", "24:C0", "25:C♯0", "26:D0", "27:D♯0", "28:E0", "29:F0", "30:F♯0", "31:G0", "32:G♯0", "33:A0", "34:A♯0", "35:B0", "36:Bass Drum", "37:Rim Shot", "38:Snare Drum", "39:Hand Clap", "40:Low Conga", "41:Mid Conga", "42:Closed Hi Hat", "43:Hi Conga", "44:Low Tom", "45:Mid Tom", "46:Open Hi Hat", "47:Hi Tom", "48:Maracas", "49:Cymbal", "50:Cow Bell", "51:Claves", "52:E2", "53:F2", "54:F♯2", "55:G2", "56:G♯2", "57:A2", "58:A♯2", "59:B2", "60:C3", "61:C♯3", "62:D3", "63:D♯3", "64:E3", "65:F3", "66:F♯3", "67:G3", "68:G♯3", "69:A3", "70:A♯3", "71:B3", "72:C4", "73:C♯4", "74:D4", "75:D♯4", "76:E4", "77:F4", "78:F♯4", "79:G4", "80:G♯4", "81:A4", "82:A♯4", "83:B4", "84:C5", "85:C♯5", "86:D5", "87:D♯5", "88:E5", "89:F5", "90:F♯5", "91:G5", "92:G♯5", "93:A5", "94:A♯5", "95:B5", "96:C6", "97:C♯6", "98:D6", "99:D♯6", "100:E6", "101:F6", "102:F♯6", "103:G6", "104:G♯6", "105:A6", "106:A♯6", "107:B6", "108:C7", "109:C♯7", "110:D7", "111:D♯7", "112:E7", "113:F7", "114:F♯7", "115:G7", "116:G♯7", "117:A7", "118:A♯7", "119:B7", "120:C8", "121:C♯8", "122:D8", "123:D♯8", "124:E8", "125:F8", "126:F♯8", "127:G8" ],
							"parameter_initial" : [ 0 ],
							"parameter_longname" : "Trig Note 1[7]",
							"parameter_shortname" : "Trig Note 1",
							"parameter_type" : 2
						}

					}
,
					"varname" : "live.menu[7]"
				}

			}
, 			{
				"box" : 				{
					"appearance" : 2,
					"bordercolor" : [ 0.066666666666667, 0.066666666666667, 0.066666666666667, 0.0 ],
					"fontsize" : 30.0,
					"hint" : "NOTE LENGTH",
					"id" : "obj-23",
					"maxclass" : "live.numbox",
					"numinlets" : 1,
					"numoutlets" : 2,
					"outlettype" : [ "", "float" ],
					"parameter_enable" : 1,
					"patching_rect" : [ 508.0, 406.0, 84.0, 37.0 ],
					"presentation" : 1,
					"presentation_rect" : [ 370.0, 0.5, 105.0, 37.0 ],
					"saved_attribute_attributes" : 					{
						"bordercolor" : 						{
							"expression" : ""
						}
,
						"valueof" : 						{
							"parameter_longname" : "live.numbox[18]",
							"parameter_mmax" : 100.0,
							"parameter_mmin" : 5.0,
							"parameter_shortname" : "live.numbox[8]",
							"parameter_steps" : 20,
							"parameter_type" : 0,
							"parameter_units" : "%",
							"parameter_unitstyle" : 5
						}

					}
,
					"varname" : "live.numbox[7]"
				}

			}
 ],
		"lines" : [ 			{
				"patchline" : 				{
					"destination" : [ "obj-4", 11 ],
					"source" : [ "obj-1", 0 ]
				}

			}
, 			{
				"patchline" : 				{
					"destination" : [ "obj-28", 0 ],
					"source" : [ "obj-10", 0 ]
				}

			}
, 			{
				"patchline" : 				{
					"destination" : [ "obj-4", 9 ],
					"source" : [ "obj-12", 0 ]
				}

			}
, 			{
				"patchline" : 				{
					"destination" : [ "obj-22", 0 ],
					"order" : 1,
					"source" : [ "obj-13", 0 ]
				}

			}
, 			{
				"patchline" : 				{
					"destination" : [ "obj-34", 1 ],
					"order" : 0,
					"source" : [ "obj-13", 0 ]
				}

			}
, 			{
				"patchline" : 				{
					"destination" : [ "obj-8", 0 ],
					"source" : [ "obj-15", 0 ]
				}

			}
, 			{
				"patchline" : 				{
					"destination" : [ "obj-64", 0 ],
					"source" : [ "obj-19", 0 ]
				}

			}
, 			{
				"patchline" : 				{
					"destination" : [ "obj-1", 0 ],
					"source" : [ "obj-2", 0 ]
				}

			}
, 			{
				"patchline" : 				{
					"destination" : [ "obj-1", 0 ],
					"source" : [ "obj-20", 0 ]
				}

			}
, 			{
				"patchline" : 				{
					"destination" : [ "obj-2", 0 ],
					"order" : 1,
					"source" : [ "obj-21", 0 ]
				}

			}
, 			{
				"patchline" : 				{
					"destination" : [ "obj-20", 0 ],
					"order" : 0,
					"source" : [ "obj-21", 0 ]
				}

			}
, 			{
				"patchline" : 				{
					"destination" : [ "obj-14", 0 ],
					"source" : [ "obj-22", 0 ]
				}

			}
, 			{
				"patchline" : 				{
					"destination" : [ "obj-4", 6 ],
					"source" : [ "obj-23", 0 ]
				}

			}
, 			{
				"patchline" : 				{
					"destination" : [ "obj-4", 9 ],
					"source" : [ "obj-28", 0 ]
				}

			}
, 			{
				"patchline" : 				{
					"destination" : [ "obj-66", 0 ],
					"source" : [ "obj-3", 0 ]
				}

			}
, 			{
				"patchline" : 				{
					"destination" : [ "obj-10", 0 ],
					"source" : [ "obj-32", 0 ]
				}

			}
, 			{
				"patchline" : 				{
					"destination" : [ "obj-1", 0 ],
					"source" : [ "obj-35", 11 ]
				}

			}
, 			{
				"patchline" : 				{
					"destination" : [ "obj-12", 0 ],
					"source" : [ "obj-35", 9 ]
				}

			}
, 			{
				"patchline" : 				{
					"destination" : [ "obj-23", 0 ],
					"source" : [ "obj-35", 6 ]
				}

			}
, 			{
				"patchline" : 				{
					"destination" : [ "obj-42", 0 ],
					"source" : [ "obj-35", 0 ]
				}

			}
, 			{
				"patchline" : 				{
					"destination" : [ "obj-43", 0 ],
					"source" : [ "obj-35", 1 ]
				}

			}
, 			{
				"patchline" : 				{
					"destination" : [ "obj-44", 0 ],
					"source" : [ "obj-35", 2 ]
				}

			}
, 			{
				"patchline" : 				{
					"destination" : [ "obj-45", 0 ],
					"source" : [ "obj-35", 3 ]
				}

			}
, 			{
				"patchline" : 				{
					"destination" : [ "obj-46", 0 ],
					"source" : [ "obj-35", 4 ]
				}

			}
, 			{
				"patchline" : 				{
					"destination" : [ "obj-5", 0 ],
					"source" : [ "obj-35", 10 ]
				}

			}
, 			{
				"patchline" : 				{
					"destination" : [ "obj-64", 0 ],
					"source" : [ "obj-35", 5 ]
				}

			}
, 			{
				"patchline" : 				{
					"destination" : [ "obj-81", 0 ],
					"source" : [ "obj-35", 7 ]
				}

			}
, 			{
				"patchline" : 				{
					"destination" : [ "obj-85", 0 ],
					"source" : [ "obj-35", 8 ]
				}

			}
, 			{
				"patchline" : 				{
					"destination" : [ "obj-22", 0 ],
					"source" : [ "obj-37", 0 ]
				}

			}
, 			{
				"patchline" : 				{
					"destination" : [ "obj-22", 0 ],
					"source" : [ "obj-38", 0 ]
				}

			}
, 			{
				"patchline" : 				{
					"destination" : [ "obj-7", 0 ],
					"source" : [ "obj-4", 0 ]
				}

			}
, 			{
				"patchline" : 				{
					"destination" : [ "obj-4", 0 ],
					"source" : [ "obj-42", 0 ]
				}

			}
, 			{
				"patchline" : 				{
					"destination" : [ "obj-4", 1 ],
					"source" : [ "obj-43", 0 ]
				}

			}
, 			{
				"patchline" : 				{
					"destination" : [ "obj-4", 2 ],
					"source" : [ "obj-44", 0 ]
				}

			}
, 			{
				"patchline" : 				{
					"destination" : [ "obj-4", 3 ],
					"source" : [ "obj-45", 0 ]
				}

			}
, 			{
				"patchline" : 				{
					"destination" : [ "obj-4", 4 ],
					"source" : [ "obj-46", 0 ]
				}

			}
, 			{
				"patchline" : 				{
					"destination" : [ "obj-4", 10 ],
					"source" : [ "obj-5", 0 ]
				}

			}
, 			{
				"patchline" : 				{
					"destination" : [ "obj-10", 0 ],
					"source" : [ "obj-60", 0 ]
				}

			}
, 			{
				"patchline" : 				{
					"destination" : [ "obj-35", 0 ],
					"source" : [ "obj-63", 0 ]
				}

			}
, 			{
				"patchline" : 				{
					"destination" : [ "obj-4", 5 ],
					"source" : [ "obj-64", 0 ]
				}

			}
, 			{
				"patchline" : 				{
					"destination" : [ "obj-63", 0 ],
					"source" : [ "obj-65", 0 ]
				}

			}
, 			{
				"patchline" : 				{
					"destination" : [ "obj-65", 0 ],
					"source" : [ "obj-66", 0 ]
				}

			}
, 			{
				"patchline" : 				{
					"destination" : [ "obj-32", 0 ],
					"source" : [ "obj-8", 9 ]
				}

			}
, 			{
				"patchline" : 				{
					"destination" : [ "obj-42", 1 ],
					"source" : [ "obj-8", 0 ]
				}

			}
, 			{
				"patchline" : 				{
					"destination" : [ "obj-43", 1 ],
					"source" : [ "obj-8", 1 ]
				}

			}
, 			{
				"patchline" : 				{
					"destination" : [ "obj-44", 1 ],
					"source" : [ "obj-8", 2 ]
				}

			}
, 			{
				"patchline" : 				{
					"destination" : [ "obj-45", 1 ],
					"source" : [ "obj-8", 3 ]
				}

			}
, 			{
				"patchline" : 				{
					"destination" : [ "obj-46", 1 ],
					"source" : [ "obj-8", 4 ]
				}

			}
, 			{
				"patchline" : 				{
					"destination" : [ "obj-4", 7 ],
					"source" : [ "obj-81", 0 ]
				}

			}
, 			{
				"patchline" : 				{
					"destination" : [ "obj-4", 8 ],
					"source" : [ "obj-85", 0 ]
				}

			}
 ],
		"parameters" : 		{
			"obj-1" : [ "live.text[1]", "live.text[1]", 0 ],
			"obj-10" : [ "live.text[3]", "live.text", 0 ],
			"obj-12" : [ "live.text[5]", "live.text[2]", 0 ],
			"obj-23" : [ "live.numbox[18]", "live.numbox[8]", 0 ],
			"obj-42::obj-10" : [ "live.text[10]", "live.text", 0 ],
			"obj-42::obj-22" : [ "live.numbox", "live.numbox", 0 ],
			"obj-42::obj-49" : [ "live.dial[5]", "STEPS", 0 ],
			"obj-43::obj-10" : [ "live.text[11]", "live.text", 0 ],
			"obj-43::obj-22" : [ "live.numbox[1]", "live.numbox", 0 ],
			"obj-43::obj-49" : [ "live.dial[6]", "STEPS", 0 ],
			"obj-44::obj-10" : [ "live.text[12]", "live.text", 0 ],
			"obj-44::obj-22" : [ "live.numbox[2]", "live.numbox", 0 ],
			"obj-44::obj-49" : [ "live.dial[7]", "STEPS", 0 ],
			"obj-45::obj-10" : [ "live.text[13]", "live.text", 0 ],
			"obj-45::obj-22" : [ "live.numbox[3]", "live.numbox", 0 ],
			"obj-45::obj-49" : [ "live.dial[8]", "STEPS", 0 ],
			"obj-46::obj-10" : [ "live.text[14]", "live.text", 0 ],
			"obj-46::obj-22" : [ "live.numbox[4]", "live.numbox", 0 ],
			"obj-46::obj-49" : [ "live.dial[9]", "STEPS", 0 ],
			"obj-5" : [ "live.text", "live.text", 0 ],
			"obj-64" : [ "Trig Note 1[7]", "Trig Note 1", 0 ],
			"obj-81" : [ "live.numbox[17]", "live.numbox", 0 ],
			"obj-85" : [ "live.numbox[16]", "live.numbox", 0 ],
			"parameterbanks" : 			{
				"0" : 				{
					"index" : 0,
					"name" : "",
					"parameters" : [ "-", "-", "-", "-", "-", "-", "-", "-" ]
				}

			}
,
			"parameter_overrides" : 			{
				"obj-42::obj-10" : 				{
					"parameter_longname" : "live.text[10]"
				}
,
				"obj-42::obj-49" : 				{
					"parameter_longname" : "live.dial[5]",
					"parameter_range" : [ 0.0, 32.0 ]
				}
,
				"obj-43::obj-10" : 				{
					"parameter_longname" : "live.text[11]"
				}
,
				"obj-43::obj-22" : 				{
					"parameter_longname" : "live.numbox[1]"
				}
,
				"obj-43::obj-49" : 				{
					"parameter_longname" : "live.dial[6]"
				}
,
				"obj-44::obj-10" : 				{
					"parameter_longname" : "live.text[12]"
				}
,
				"obj-44::obj-22" : 				{
					"parameter_longname" : "live.numbox[2]"
				}
,
				"obj-44::obj-49" : 				{
					"parameter_longname" : "live.dial[7]"
				}
,
				"obj-45::obj-10" : 				{
					"parameter_longname" : "live.text[13]"
				}
,
				"obj-45::obj-22" : 				{
					"parameter_longname" : "live.numbox[3]"
				}
,
				"obj-45::obj-49" : 				{
					"parameter_longname" : "live.dial[8]"
				}
,
				"obj-46::obj-10" : 				{
					"parameter_longname" : "live.text[14]"
				}
,
				"obj-46::obj-22" : 				{
					"parameter_longname" : "live.numbox[4]"
				}
,
				"obj-46::obj-49" : 				{
					"parameter_longname" : "live.dial[9]"
				}

			}
,
			"inherited_shortname" : 1
		}
,
		"dependency_cache" : [ 			{
				"name" : "locked.svg",
				"bootpath" : "E:/USER_FOLDERS/Documents/Ableton/User Library/Presets/MIDI Effects/Max MIDI Effect/EuclideanGen",
				"patcherrelativepath" : ".",
				"type" : "svg",
				"implicit" : 1
			}
, 			{
				"name" : "nob_bar.maxpat",
				"bootpath" : "E:/USER_FOLDERS/Documents/Ableton/User Library/Presets/MIDI Effects/Max MIDI Effect/EuclideanGen",
				"patcherrelativepath" : ".",
				"type" : "JSON",
				"implicit" : 1
			}
, 			{
				"name" : "reverse.svg",
				"bootpath" : "E:/USER_FOLDERS/Documents/Ableton/User Library/Presets/MIDI Effects/Max MIDI Effect/EuclideanGen",
				"patcherrelativepath" : ".",
				"type" : "svg",
				"implicit" : 1
			}
, 			{
				"name" : "unlocked.svg",
				"bootpath" : "E:/USER_FOLDERS/Documents/Ableton/User Library/Presets/MIDI Effects/Max MIDI Effect/EuclideanGen",
				"patcherrelativepath" : ".",
				"type" : "svg",
				"implicit" : 1
			}
 ],
		"autosave" : 0,
		"styles" : [ 			{
				"name" : "rnbodefault",
				"default" : 				{
					"accentcolor" : [ 0.343034118413925, 0.506230533123016, 0.86220508813858, 1.0 ],
					"bgcolor" : [ 0.031372549019608, 0.125490196078431, 0.211764705882353, 1.0 ],
					"bgfillcolor" : 					{
						"angle" : 270.0,
						"autogradient" : 0.0,
						"color" : [ 0.031372549019608, 0.125490196078431, 0.211764705882353, 1.0 ],
						"color1" : [ 0.031372549019608, 0.125490196078431, 0.211764705882353, 1.0 ],
						"color2" : [ 0.263682, 0.004541, 0.038797, 1.0 ],
						"proportion" : 0.39,
						"type" : "color"
					}
,
					"color" : [ 0.929412, 0.929412, 0.352941, 1.0 ],
					"elementcolor" : [ 0.357540726661682, 0.515565991401672, 0.861786782741547, 1.0 ],
					"fontname" : [ "Lato" ],
					"fontsize" : [ 12.0 ],
					"stripecolor" : [ 0.258338063955307, 0.352425158023834, 0.511919498443604, 1.0 ],
					"textcolor_inverse" : [ 0.968627, 0.968627, 0.968627, 1 ]
				}
,
				"parentstyle" : "",
				"multi" : 0
			}
, 			{
				"name" : "rnbomonokai",
				"default" : 				{
					"accentcolor" : [ 0.501960784313725, 0.501960784313725, 0.501960784313725, 1.0 ],
					"bgcolor" : [ 0.0, 0.0, 0.0, 1.0 ],
					"bgfillcolor" : 					{
						"angle" : 270.0,
						"autogradient" : 0.0,
						"color" : [ 0.0, 0.0, 0.0, 1.0 ],
						"color1" : [ 0.031372549019608, 0.125490196078431, 0.211764705882353, 1.0 ],
						"color2" : [ 0.263682, 0.004541, 0.038797, 1.0 ],
						"proportion" : 0.39,
						"type" : "color"
					}
,
					"clearcolor" : [ 0.976470588235294, 0.96078431372549, 0.917647058823529, 1.0 ],
					"color" : [ 0.611764705882353, 0.125490196078431, 0.776470588235294, 1.0 ],
					"editing_bgcolor" : [ 0.976470588235294, 0.96078431372549, 0.917647058823529, 1.0 ],
					"elementcolor" : [ 0.749019607843137, 0.83921568627451, 1.0, 1.0 ],
					"fontname" : [ "Lato" ],
					"locked_bgcolor" : [ 0.976470588235294, 0.96078431372549, 0.917647058823529, 1.0 ],
					"stripecolor" : [ 0.796078431372549, 0.207843137254902, 1.0, 1.0 ],
					"textcolor" : [ 0.129412, 0.129412, 0.129412, 1.0 ]
				}
,
				"parentstyle" : "",
				"multi" : 0
			}
 ]
	}

}
